<?xml version="1.0" standalone="no"?>
<!DOCTYPE svg PUBLIC "-//W3C//DTD SVG 20010904//EN"
  "http://www.w3.org/TR/2001/REC-SVG-20010904/DTD/svg10.dtd">
<svg height="700.000000pt" preserveAspectRatio="xMidYMid meet"
     version="1.0" viewBox="0 0 700.000000 700.000000" width="700.000000pt"
     xmlns="http://www.w3.org/2000/svg">
  <metadata>
    Created by potrace 1.11, written by Peter Selinger 2001-2013
  </metadata>
  <g fill="#000000"
     stroke="none" transform="translate(0.000000,700.000000) scale(0.100000,-0.100000)">
    <path d="M3190 6757 c-19 -5 -40 -13 -47 -18 -7 -7 -13 -5 -16 3 -3 8 -6 6 -6
-5 -1 -10 -5 -16 -10 -12 -11 6 -61 -15 -61 -26 0 -4 -10 -9 -23 -13 -12 -3
-33 -16 -47 -28 -13 -13 -26 -22 -27 -20 -2 1 -3 -1 -4 -5 0 -5 -14 -16 -30
-27 -17 -10 -28 -24 -26 -31 3 -6 0 -12 -6 -13 -7 0 -64 -14 -127 -30 -656
-169 -1166 -480 -1625 -992 -134 -149 -292 -380 -402 -589 -25 -46 -49 -91
-53 -100 -14 -25 -70 -152 -70 -158 0 -3 -6 -19 -14 -36 -13 -29 -59 -155 -62
-167 0 -3 -4 -12 -7 -20 -15 -37 -67 -234 -86 -325 -30 -144 -40 -208 -58
-365 -15 -140 -7 -600 13 -704 2 -12 11 -64 20 -116 13 -80 24 -130 49 -240
82 -348 280 -767 512 -1082 203 -274 477 -540 753 -729 387 -267 859 -451
1315 -514 22 -3 49 -7 60 -10 134 -27 621 -26 805 2 47 7 187 31 225 38 228
43 496 136 745 258 219 106 411 230 607 389 83 67 324 302 387 377 122 144
247 321 340 481 113 192 251 524 301 720 91 359 110 509 110 850 0 181 -11
385 -20 401 -2 3 -6 27 -10 53 -3 26 -9 66 -14 89 -5 23 -12 58 -15 77 -3 19
-10 50 -15 68 -5 18 -10 35 -10 37 -4 41 -66 243 -113 370 -216 579 -617 1094
-1138 1463 -340 239 -797 433 -1185 501 -33 6 -71 13 -85 16 -14 3 -47 8 -74
11 -28 3 -52 7 -55 9 -7 4 -131 15 -220 19 -53 3 -67 8 -85 29 -11 13 -41 35
-66 47 -25 13 -58 30 -75 38 -16 9 -31 15 -33 14 -3 -3 -55 9 -66 16 -14 8
-56 9 -56 2 0 -8 -54 -7 -60 1 -3 3 -21 2 -40 -4z"/>
  </g>
</svg>
